<svg xmlns="http://www.w3.org/2000/svg" viewBox="0 0 18 18"><rect x="7.125" y="2.25" width=".75" height="2.5" rx=".375" fill="#FFFFFF" data-color="color-2"></rect><rect x="10.125" y="2.25" width=".75" height="2.5" rx=".375" fill="#FFFFFF" data-color="color-2"></rect><rect x="7.125" y="13.25" width=".75" height="2.5" rx=".375" fill="#FFFFFF" data-color="color-2"></rect><rect x="10.125" y="13.25" width=".75" height="2.5" rx=".375" fill="#FFFFFF" data-color="color-2"></rect><rect x="2.25" y="7.125" width="2.5" height=".75" rx=".375" fill="#FFFFFF" data-color="color-2"></rect><rect x="2.25" y="10.125" width="2.5" height=".75" rx=".375" fill="#FFFFFF" data-color="color-2"></rect><rect x="13.25" y="7.125" width="2.5" height=".75" rx=".375" fill="#FFFFFF" data-color="color-2"></rect><rect x="13.25" y="10.125" width="2.5" height=".75" rx=".375" fill="#FFFFFF" data-color="color-2"></rect><rect x="7.75" y="7.75" width="2.5" height="2.5" rx=".6" fill="#FFFFFF" data-color="color-2"></rect><path fill-rule="evenodd" d="M6.25,4.5h5.5c.966,0,1.75,.784,1.75,1.75v5.5c0,.966-.784,1.75-1.75,1.75h-5.5c-.966,0-1.75-.784-1.75-1.75v-5.5c0-.966,.784-1.75,1.75-1.75Zm.75,1.5c-.552,0-1,.448-1,1v4c0,.552,.448,1,1,1h4c.552,0,1-.448,1-1v-4c0-.552-.448-1-1-1h-4Z" fill="#FFFFFF"></path></svg>
